<svg width="64" height="64" viewBox="0 0 64 64" fill="none" xmlns="http://www.w3.org/2000/svg">
<path d="M0 53.5C0 63 10.5 64 10.5 64C10.5 64 21.633 64.2238 21.5 53.5C21.367 42.7762 23.1559 39.999 30.5 31C37.8441 22.001 52.8052 21.7459 53 21.5C53 21.5 64 21 64 10.5C64 0 53 0 53 0C53 0 42.5 0 42.5 10.5C42.5 21 32 21.5 32 21.5C32 21.5 21.5 21 21.5 10.5C21.5 0 10.5 0 10.5 0C10.5 0 0 0.499993 0 10.5C0 20.5 10.5 21.5 10.5 21.5C10.5 21.5 21.5 22 21.5 32C21.5 42 10.5 43 10.5 43C10.5 43 0 44 0 53.5Z" fill="white"></path>
<path d="M64 46.5C64.0369 36.7971 55.8828 29.2629 46 29.5C36.1173 29.7371 29.4432 38.6708 29.5 46.5C29.5569 54.3292 35.9996 63.9293 46 64C56.0005 64.0707 63.9631 56.2029 64 46.5Z" fill="white"></path>
</svg>